# xmcd CD database file
#
# Track frame offsets:
#	150
#	19717
#	36597
#	61207
#	83935
#	97550
#	119120
#	138145
#	157907
#	179450
#	202612
#	226987
#	247415
#	271590
#	287382
#
# Disc length: 4059 seconds
#
# Revision: 2
# Processed by: cddbd v1.5.1PL2 Copyright (c) Steve Scherf et al.
# Submitted via: CDex 1.51
#
DISCID=c00fd90f
DTITLE=Johannes Kerkorrel - ge-trans-for-meer
DYEAR=1900
DGENRE=
TTITLE0=Sê-sê
TTITLE1=Europhobia
TTITLE2=Oe die Kaap
TTITLE3=Changes
TTITLE4=Paradys
TTITLE5=Elvis
TTITLE6=Dawid Ryk
TTITLE7=Wanhoop in die Vrystaat
TTITLE8=Snor City
TTITLE9=My ewig ontwykende beminde
TTITLE10=Boogskutter
TTITLE11=Onder in my whiskyglas
TTITLE12=Foto
TTITLE13=Ewig Jonk
TTITLE14=Berge nog so blou
EXTD=
EXTT0=
EXTT1=
EXTT2=
EXTT3=
EXTT4=
EXTT5=
EXTT6=
EXTT7=
EXTT8=
EXTT9=
EXTT10=
EXTT11=
EXTT12=
EXTT13=
EXTT14=
PLAYORDER=
